<svg xmlns="http://www.w3.org/2000/svg" xmlns:xlink="http://www.w3.org/1999/xlink" width="273" zoomAndPan="magnify" viewBox="0 0 204.75 111.749996" height="149" preserveAspectRatio="xMidYMid meet" version="1.2"><defs/><g id="2947d22112"><path style=" stroke:none;fill-rule:nonzero;fill:#bc9c22;fill-opacity:1;" d="M 189.453125 41.628906 L 189.453125 47.144531 L 98.308594 47.144531 C 97.644531 47.144531 97.007812 46.90625 96.507812 46.476562 L 59.929688 14.960938 L 23.152344 47.144531 L 14.78125 47.144531 L 58.101562 9.238281 C 59.128906 8.335938 60.671875 8.332031 61.710938 9.222656 L 79.207031 24.296875 L 79.207031 15.507812 C 79.207031 14.710938 79.851562 14.070312 80.644531 14.070312 L 88.792969 14.070312 C 89.589844 14.070312 90.230469 14.710938 90.230469 15.507812 L 90.230469 33.792969 L 99.328125 41.628906 Z M 189.453125 41.628906 "/><path style=" stroke:none;fill-rule:nonzero;fill:#bc9c22;fill-opacity:1;" d="M 57.15625 30.605469 L 51.644531 30.605469 L 51.644531 36.117188 L 57.15625 36.117188 Z M 68.183594 36.117188 L 62.671875 36.117188 L 62.671875 30.605469 L 68.183594 30.605469 Z M 57.15625 47.144531 L 51.644531 47.144531 L 51.644531 41.628906 L 57.15625 41.628906 Z M 68.183594 47.144531 L 62.671875 47.144531 L 62.671875 41.628906 L 68.183594 41.628906 Z M 68.183594 47.144531 "/><g style="fill:#bc9c22;fill-opacity:1;"><g transform="translate(12.633976, 70.987592)"><path style="stroke:none" d="M 16.703125 0 L 16.703125 -12.484375 L 12.25 -4.71875 L 10.0625 -4.71875 L 5.65625 -12.484375 L 5.65625 0 L 2.015625 0 L 2.015625 -18.578125 L 6.375 -18.578125 L 11.21875 -9.75 L 16.109375 -18.578125 L 20.375 -18.578125 L 20.375 0 Z M 16.703125 0 "/></g></g><g style="fill:#bc9c22;fill-opacity:1;"><g transform="translate(35.00026, 70.987592)"><path style="stroke:none" d="M 0.359375 0 L 6.515625 -18.578125 L 11.4375 -18.578125 L 17.59375 0 L 13.71875 0 L 12.484375 -3.765625 L 5.328125 -3.765625 L 4.125 0 Z M 6.40625 -7.078125 L 11.40625 -7.078125 L 8.90625 -14.765625 Z M 6.40625 -7.078125 "/></g></g><g style="fill:#bc9c22;fill-opacity:1;"><g transform="translate(52.938905, 70.987592)"><path style="stroke:none" d="M 15.359375 -5.375 C 15.359375 -3.519531 14.75 -2.09375 13.53125 -1.09375 C 12.3125 -0.101562 10.507812 0.390625 8.125 0.390625 C 6.476562 0.390625 5.050781 0.117188 3.84375 -0.421875 C 2.632812 -0.972656 1.648438 -1.859375 0.890625 -3.078125 L 3.796875 -5.296875 C 4.222656 -4.691406 4.628906 -4.234375 5.015625 -3.921875 C 5.398438 -3.617188 5.859375 -3.382812 6.390625 -3.21875 C 6.921875 -3.050781 7.53125 -2.96875 8.21875 -2.96875 C 9.238281 -2.96875 10.035156 -3.144531 10.609375 -3.5 C 11.191406 -3.851562 11.484375 -4.390625 11.484375 -5.109375 C 11.484375 -5.523438 11.382812 -5.867188 11.1875 -6.140625 C 10.988281 -6.421875 10.6875 -6.660156 10.28125 -6.859375 C 9.875 -7.066406 9.175781 -7.300781 8.1875 -7.5625 C 7.21875 -7.8125 6.304688 -8.066406 5.453125 -8.328125 C 4.597656 -8.597656 3.859375 -8.941406 3.234375 -9.359375 C 2.617188 -9.785156 2.128906 -10.316406 1.765625 -10.953125 C 1.410156 -11.585938 1.234375 -12.390625 1.234375 -13.359375 C 1.234375 -15.117188 1.828125 -16.492188 3.015625 -17.484375 C 4.203125 -18.472656 5.90625 -18.96875 8.125 -18.96875 C 11.34375 -18.96875 13.617188 -17.863281 14.953125 -15.65625 L 12.0625 -13.40625 C 11.550781 -14.195312 10.976562 -14.757812 10.34375 -15.09375 C 9.707031 -15.4375 8.953125 -15.609375 8.078125 -15.609375 C 7.203125 -15.609375 6.488281 -15.445312 5.9375 -15.125 C 5.382812 -14.8125 5.109375 -14.316406 5.109375 -13.640625 C 5.109375 -13.035156 5.394531 -12.570312 5.96875 -12.25 C 6.539062 -11.9375 7.539062 -11.617188 8.96875 -11.296875 C 9.75 -11.085938 10.523438 -10.863281 11.296875 -10.625 C 12.066406 -10.394531 12.753906 -10.066406 13.359375 -9.640625 C 13.960938 -9.222656 14.445312 -8.675781 14.8125 -8 C 15.175781 -7.320312 15.359375 -6.445312 15.359375 -5.375 Z M 15.359375 -5.375 "/></g></g><g style="fill:#bc9c22;fill-opacity:1;"><g transform="translate(69.428505, 70.987592)"><path style="stroke:none" d="M 9.96875 -15.109375 L 9.96875 0 L 6.1875 0 L 6.1875 -15.109375 L 0.46875 -15.109375 L 0.46875 -18.578125 L 15.6875 -18.578125 L 15.6875 -15.109375 Z M 9.96875 -15.109375 "/></g></g><g style="fill:#bc9c22;fill-opacity:1;"><g transform="translate(85.582678, 70.987592)"><path style="stroke:none" d="M 2.015625 0 L 2.015625 -18.578125 L 14.078125 -18.578125 L 14.078125 -15.234375 L 5.796875 -15.234375 L 5.796875 -11.265625 L 12.78125 -11.265625 L 12.78125 -7.921875 L 5.796875 -7.921875 L 5.796875 -3.46875 L 14.078125 -3.46875 L 14.078125 0 Z M 2.015625 0 "/></g></g><g style="fill:#bc9c22;fill-opacity:1;"><g transform="translate(100.998911, 70.987592)"><path style="stroke:none" d="M 12.453125 0 L 7.71875 -7.03125 L 5.796875 -7.03125 L 5.796875 0 L 2.015625 0 L 2.015625 -18.578125 L 8.765625 -18.578125 C 11.148438 -18.578125 12.894531 -18.144531 14 -17.28125 C 15.101562 -16.425781 15.65625 -15.019531 15.65625 -13.0625 C 15.65625 -11.476562 15.320312 -10.210938 14.65625 -9.265625 C 13.988281 -8.328125 13.046875 -7.726562 11.828125 -7.46875 L 16.78125 0 Z M 11.828125 -12.890625 C 11.828125 -13.835938 11.585938 -14.472656 11.109375 -14.796875 C 10.628906 -15.117188 9.835938 -15.28125 8.734375 -15.28125 L 5.796875 -15.28125 L 5.796875 -10.328125 L 8.578125 -10.328125 C 9.421875 -10.328125 10.070312 -10.40625 10.53125 -10.5625 C 10.988281 -10.726562 11.316406 -10.984375 11.515625 -11.328125 C 11.722656 -11.671875 11.828125 -12.191406 11.828125 -12.890625 Z M 11.828125 -12.890625 "/></g></g><g style="fill:#bc9c22;fill-opacity:1;"><g transform="translate(118.226451, 70.987592)"><path style="stroke:none" d=""/></g></g><g style="fill:#bc9c22;fill-opacity:1;"><g transform="translate(124.827658, 70.987592)"><path style="stroke:none" d="M 12.0625 0 L 6.921875 -7.75 L 5.796875 -6.453125 L 5.796875 0 L 2.015625 0 L 2.015625 -18.578125 L 5.796875 -18.578125 L 5.796875 -11.328125 L 11.875 -18.578125 L 16.296875 -18.578125 L 9.375 -10.578125 L 16.78125 0 Z M 12.0625 0 "/></g></g><g style="fill:#bc9c22;fill-opacity:1;"><g transform="translate(142.001529, 70.987592)"><path style="stroke:none" d="M 10.328125 0 L 1.375 0 L 1.375 -2.90625 L 3.953125 -2.90625 L 3.953125 -15.65625 L 1.375 -15.65625 L 1.375 -18.578125 L 10.328125 -18.578125 L 10.328125 -15.65625 L 7.75 -15.65625 L 7.75 -2.90625 L 10.328125 -2.90625 Z M 10.328125 0 "/></g></g><g style="fill:#bc9c22;fill-opacity:1;"><g transform="translate(153.701229, 70.987592)"><path style="stroke:none" d="M 12.484375 0 L 5.71875 -13.265625 L 5.71875 0 L 2.015625 0 L 2.015625 -18.578125 L 6.921875 -18.578125 L 13.21875 -6.046875 L 13.21875 -18.578125 L 16.9375 -18.578125 L 16.9375 0 Z M 12.484375 0 "/></g></g><g style="fill:#bc9c22;fill-opacity:1;"><g transform="translate(172.632739, 70.987592)"><path style="stroke:none" d="M 14.296875 -13.359375 C 13.816406 -14.117188 13.238281 -14.679688 12.5625 -15.046875 C 11.882812 -15.421875 11.03125 -15.609375 10 -15.609375 C 8.3125 -15.609375 7.085938 -15.0625 6.328125 -13.96875 C 5.566406 -12.882812 5.1875 -11.269531 5.1875 -9.125 C 5.1875 -7 5.5625 -5.441406 6.3125 -4.453125 C 7.0625 -3.460938 8.265625 -2.96875 9.921875 -2.96875 C 11.171875 -2.96875 12.320312 -3.226562 13.375 -3.75 L 13.375 -6.625 L 9.75 -6.625 L 9.75 -9.96875 L 17.171875 -9.96875 L 17.171875 -1.765625 C 16.316406 -1.117188 15.25 -0.597656 13.96875 -0.203125 C 12.695312 0.191406 11.382812 0.390625 10.03125 0.390625 C 7.132812 0.390625 4.953125 -0.363281 3.484375 -1.875 C 2.015625 -3.382812 1.28125 -5.800781 1.28125 -9.125 C 1.28125 -15.6875 4.164062 -18.96875 9.9375 -18.96875 C 11.625 -18.96875 13.09375 -18.679688 14.34375 -18.109375 C 15.59375 -17.546875 16.546875 -16.722656 17.203125 -15.640625 Z M 14.296875 -13.359375 "/></g></g><g style="fill:#bc9c22;fill-opacity:1;"><g transform="translate(43.000713, 94.68846)"><path style="stroke:none" d="M 12.453125 0 L 7.71875 -7.03125 L 5.796875 -7.03125 L 5.796875 0 L 2.015625 0 L 2.015625 -18.578125 L 8.765625 -18.578125 C 11.148438 -18.578125 12.894531 -18.144531 14 -17.28125 C 15.101562 -16.425781 15.65625 -15.019531 15.65625 -13.0625 C 15.65625 -11.476562 15.320312 -10.210938 14.65625 -9.265625 C 13.988281 -8.328125 13.046875 -7.726562 11.828125 -7.46875 L 16.78125 0 Z M 11.828125 -12.890625 C 11.828125 -13.835938 11.585938 -14.472656 11.109375 -14.796875 C 10.628906 -15.117188 9.835938 -15.28125 8.734375 -15.28125 L 5.796875 -15.28125 L 5.796875 -10.328125 L 8.578125 -10.328125 C 9.421875 -10.328125 10.070312 -10.40625 10.53125 -10.5625 C 10.988281 -10.726562 11.316406 -10.984375 11.515625 -11.328125 C 11.722656 -11.671875 11.828125 -12.191406 11.828125 -12.890625 Z M 11.828125 -12.890625 "/></g></g><g style="fill:#bc9c22;fill-opacity:1;"><g transform="translate(60.228253, 94.68846)"><path style="stroke:none" d="M 17.15625 -9.28125 C 17.15625 -6.050781 16.472656 -3.628906 15.109375 -2.015625 C 13.742188 -0.410156 11.757812 0.390625 9.15625 0.390625 C 6.40625 0.390625 4.382812 -0.457031 3.09375 -2.15625 C 1.800781 -3.851562 1.15625 -6.226562 1.15625 -9.28125 C 1.15625 -12.363281 1.800781 -14.75 3.09375 -16.4375 C 4.382812 -18.125 6.40625 -18.96875 9.15625 -18.96875 C 11.914062 -18.96875 13.9375 -18.125 15.21875 -16.4375 C 16.507812 -14.75 17.15625 -12.363281 17.15625 -9.28125 Z M 13.25 -9.28125 C 13.25 -11.488281 12.9375 -13.09375 12.3125 -14.09375 C 11.6875 -15.101562 10.632812 -15.609375 9.15625 -15.609375 C 7.664062 -15.609375 6.609375 -15.101562 5.984375 -14.09375 C 5.367188 -13.09375 5.0625 -11.488281 5.0625 -9.28125 C 5.0625 -7.082031 5.375 -5.476562 6 -4.46875 C 6.632812 -3.46875 7.6875 -2.96875 9.15625 -2.96875 C 10.632812 -2.96875 11.6875 -3.46875 12.3125 -4.46875 C 12.9375 -5.476562 13.25 -7.082031 13.25 -9.28125 Z M 13.25 -9.28125 "/></g></g><g style="fill:#bc9c22;fill-opacity:1;"><g transform="translate(78.52916, 94.68846)"><path style="stroke:none" d="M 17.15625 -9.28125 C 17.15625 -6.050781 16.472656 -3.628906 15.109375 -2.015625 C 13.742188 -0.410156 11.757812 0.390625 9.15625 0.390625 C 6.40625 0.390625 4.382812 -0.457031 3.09375 -2.15625 C 1.800781 -3.851562 1.15625 -6.226562 1.15625 -9.28125 C 1.15625 -12.363281 1.800781 -14.75 3.09375 -16.4375 C 4.382812 -18.125 6.40625 -18.96875 9.15625 -18.96875 C 11.914062 -18.96875 13.9375 -18.125 15.21875 -16.4375 C 16.507812 -14.75 17.15625 -12.363281 17.15625 -9.28125 Z M 13.25 -9.28125 C 13.25 -11.488281 12.9375 -13.09375 12.3125 -14.09375 C 11.6875 -15.101562 10.632812 -15.609375 9.15625 -15.609375 C 7.664062 -15.609375 6.609375 -15.101562 5.984375 -14.09375 C 5.367188 -13.09375 5.0625 -11.488281 5.0625 -9.28125 C 5.0625 -7.082031 5.375 -5.476562 6 -4.46875 C 6.632812 -3.46875 7.6875 -2.96875 9.15625 -2.96875 C 10.632812 -2.96875 11.6875 -3.46875 12.3125 -4.46875 C 12.9375 -5.476562 13.25 -7.082031 13.25 -9.28125 Z M 13.25 -9.28125 "/></g></g><g style="fill:#bc9c22;fill-opacity:1;"><g transform="translate(96.830067, 94.68846)"><path style="stroke:none" d="M 5.796875 -15.109375 L 5.796875 -11.09375 L 12.640625 -11.09375 L 12.640625 -7.75 L 5.796875 -7.75 L 5.796875 0 L 2.015625 0 L 2.015625 -18.578125 L 13.953125 -18.578125 L 13.953125 -15.109375 Z M 5.796875 -15.109375 "/></g></g><g style="fill:#bc9c22;fill-opacity:1;"><g transform="translate(111.642531, 94.68846)"><path style="stroke:none" d="M 10.328125 0 L 1.375 0 L 1.375 -2.90625 L 3.953125 -2.90625 L 3.953125 -15.65625 L 1.375 -15.65625 L 1.375 -18.578125 L 10.328125 -18.578125 L 10.328125 -15.65625 L 7.75 -15.65625 L 7.75 -2.90625 L 10.328125 -2.90625 Z M 10.328125 0 "/></g></g><g style="fill:#bc9c22;fill-opacity:1;"><g transform="translate(123.342231, 94.68846)"><path style="stroke:none" d="M 12.484375 0 L 5.71875 -13.265625 L 5.71875 0 L 2.015625 0 L 2.015625 -18.578125 L 6.921875 -18.578125 L 13.21875 -6.046875 L 13.21875 -18.578125 L 16.9375 -18.578125 L 16.9375 0 Z M 12.484375 0 "/></g></g><g style="fill:#bc9c22;fill-opacity:1;"><g transform="translate(142.273741, 94.68846)"><path style="stroke:none" d="M 14.296875 -13.359375 C 13.816406 -14.117188 13.238281 -14.679688 12.5625 -15.046875 C 11.882812 -15.421875 11.03125 -15.609375 10 -15.609375 C 8.3125 -15.609375 7.085938 -15.0625 6.328125 -13.96875 C 5.566406 -12.882812 5.1875 -11.269531 5.1875 -9.125 C 5.1875 -7 5.5625 -5.441406 6.3125 -4.453125 C 7.0625 -3.460938 8.265625 -2.96875 9.921875 -2.96875 C 11.171875 -2.96875 12.320312 -3.226562 13.375 -3.75 L 13.375 -6.625 L 9.75 -6.625 L 9.75 -9.96875 L 17.171875 -9.96875 L 17.171875 -1.765625 C 16.316406 -1.117188 15.25 -0.597656 13.96875 -0.203125 C 12.695312 0.191406 11.382812 0.390625 10.03125 0.390625 C 7.132812 0.390625 4.953125 -0.363281 3.484375 -1.875 C 2.015625 -3.382812 1.28125 -5.800781 1.28125 -9.125 C 1.28125 -15.6875 4.164062 -18.96875 9.9375 -18.96875 C 11.625 -18.96875 13.09375 -18.679688 14.34375 -18.109375 C 15.59375 -17.546875 16.546875 -16.722656 17.203125 -15.640625 Z M 14.296875 -13.359375 "/></g></g></g></svg>