<svg xmlns="http://www.w3.org/2000/svg" xmlns:xlink="http://www.w3.org/1999/xlink" width="286" zoomAndPan="magnify" viewBox="0 0 214.5 214.499992" height="286" preserveAspectRatio="xMidYMid meet" version="1.0"><defs><g/></defs><path fill="#bc9c22" d="M 197.289062 121.003906 L 197.289062 126.722656 L 102.757812 126.722656 C 102.074219 126.722656 101.414062 126.476562 100.894531 126.027344 L 62.957031 93.347656 L 24.816406 126.722656 L 16.136719 126.722656 L 61.058594 87.410156 C 62.125 86.472656 63.730469 86.46875 64.804688 87.394531 L 82.949219 103.027344 L 82.949219 93.910156 C 82.949219 93.085938 83.617188 92.417969 84.441406 92.417969 L 92.894531 92.417969 C 93.71875 92.417969 94.382812 93.085938 94.382812 93.910156 L 94.382812 112.875 L 103.820312 121.003906 Z M 197.289062 121.003906 " fill-opacity="1" fill-rule="nonzero"/><path fill="#bc9c22" d="M 60.082031 109.570312 L 54.367188 109.570312 L 54.367188 115.289062 L 60.082031 115.289062 Z M 71.515625 115.289062 L 65.800781 115.289062 L 65.800781 109.570312 L 71.515625 109.570312 Z M 60.082031 126.722656 L 54.367188 126.722656 L 54.367188 121.003906 L 60.082031 121.003906 Z M 71.515625 126.722656 L 65.800781 126.722656 L 65.800781 121.003906 L 71.515625 121.003906 Z M 71.515625 126.722656 " fill-opacity="1" fill-rule="nonzero"/><g fill="#bc9c22" fill-opacity="1"><g transform="translate(13.905508, 151.428194)"><g><path d="M 17.328125 0 L 17.328125 -12.9375 L 12.703125 -4.90625 L 10.4375 -4.90625 L 5.875 -12.9375 L 5.875 0 L 2.09375 0 L 2.09375 -19.265625 L 6.609375 -19.265625 L 11.640625 -10.109375 L 16.703125 -19.265625 L 21.125 -19.265625 L 21.125 0 Z M 17.328125 0 "/></g></g></g><g fill="#bc9c22" fill-opacity="1"><g transform="translate(37.098252, 151.428194)"><g><path d="M 0.375 0 L 6.75 -19.265625 L 11.859375 -19.265625 L 18.25 0 L 14.21875 0 L 12.9375 -3.90625 L 5.53125 -3.90625 L 4.265625 0 Z M 6.640625 -7.34375 L 11.828125 -7.34375 L 9.234375 -15.3125 Z M 6.640625 -7.34375 "/></g></g></g><g fill="#bc9c22" fill-opacity="1"><g transform="translate(55.69975, 151.428194)"><g><path d="M 15.9375 -5.578125 C 15.9375 -3.648438 15.300781 -2.171875 14.03125 -1.140625 C 12.769531 -0.109375 10.90625 0.40625 8.4375 0.40625 C 6.726562 0.40625 5.242188 0.125 3.984375 -0.4375 C 2.722656 -1.007812 1.703125 -1.925781 0.921875 -3.1875 L 3.9375 -5.5 C 4.382812 -4.863281 4.804688 -4.390625 5.203125 -4.078125 C 5.597656 -3.765625 6.066406 -3.519531 6.609375 -3.34375 C 7.160156 -3.164062 7.796875 -3.078125 8.515625 -3.078125 C 9.578125 -3.078125 10.40625 -3.257812 11 -3.625 C 11.601562 -3.988281 11.90625 -4.546875 11.90625 -5.296875 C 11.90625 -5.722656 11.800781 -6.082031 11.59375 -6.375 C 11.382812 -6.664062 11.070312 -6.914062 10.65625 -7.125 C 10.238281 -7.332031 9.515625 -7.566406 8.484375 -7.828125 C 7.484375 -8.097656 6.539062 -8.367188 5.65625 -8.640625 C 4.769531 -8.921875 4.003906 -9.28125 3.359375 -9.71875 C 2.710938 -10.15625 2.203125 -10.703125 1.828125 -11.359375 C 1.460938 -12.015625 1.28125 -12.84375 1.28125 -13.84375 C 1.28125 -15.675781 1.894531 -17.101562 3.125 -18.125 C 4.363281 -19.144531 6.132812 -19.65625 8.4375 -19.65625 C 11.757812 -19.65625 14.113281 -18.515625 15.5 -16.234375 L 12.515625 -13.90625 C 11.984375 -14.71875 11.382812 -15.300781 10.71875 -15.65625 C 10.0625 -16.007812 9.28125 -16.1875 8.375 -16.1875 C 7.46875 -16.1875 6.726562 -16.019531 6.15625 -15.6875 C 5.582031 -15.363281 5.296875 -14.847656 5.296875 -14.140625 C 5.296875 -13.515625 5.59375 -13.035156 6.1875 -12.703125 C 6.78125 -12.378906 7.816406 -12.050781 9.296875 -11.71875 C 10.109375 -11.5 10.914062 -11.265625 11.71875 -11.015625 C 12.519531 -10.773438 13.234375 -10.4375 13.859375 -10 C 14.484375 -9.570312 14.984375 -9.003906 15.359375 -8.296875 C 15.742188 -7.585938 15.9375 -6.679688 15.9375 -5.578125 Z M 15.9375 -5.578125 "/></g></g></g><g fill="#bc9c22" fill-opacity="1"><g transform="translate(72.798659, 151.428194)"><g><path d="M 10.34375 -15.671875 L 10.34375 0 L 6.421875 0 L 6.421875 -15.671875 L 0.484375 -15.671875 L 0.484375 -19.265625 L 16.265625 -19.265625 L 16.265625 -15.671875 Z M 10.34375 -15.671875 "/></g></g></g><g fill="#bc9c22" fill-opacity="1"><g transform="translate(89.549747, 151.428194)"><g><path d="M 2.09375 0 L 2.09375 -19.265625 L 14.59375 -19.265625 L 14.59375 -15.796875 L 6.015625 -15.796875 L 6.015625 -11.6875 L 13.25 -11.6875 L 13.25 -8.203125 L 6.015625 -8.203125 L 6.015625 -3.59375 L 14.59375 -3.59375 L 14.59375 0 Z M 2.09375 0 "/></g></g></g><g fill="#bc9c22" fill-opacity="1"><g transform="translate(105.535627, 151.428194)"><g><path d="M 12.921875 0 L 8 -7.296875 L 6.015625 -7.296875 L 6.015625 0 L 2.09375 0 L 2.09375 -19.265625 L 9.09375 -19.265625 C 11.5625 -19.265625 13.367188 -18.816406 14.515625 -17.921875 C 15.660156 -17.035156 16.234375 -15.578125 16.234375 -13.546875 C 16.234375 -11.898438 15.890625 -10.585938 15.203125 -9.609375 C 14.515625 -8.640625 13.535156 -8.019531 12.265625 -7.75 L 17.40625 0 Z M 12.265625 -13.375 C 12.265625 -14.351562 12.015625 -15.007812 11.515625 -15.34375 C 11.015625 -15.675781 10.195312 -15.84375 9.0625 -15.84375 L 6.015625 -15.84375 L 6.015625 -10.71875 L 8.890625 -10.71875 C 9.773438 -10.71875 10.453125 -10.800781 10.921875 -10.96875 C 11.398438 -11.132812 11.742188 -11.394531 11.953125 -11.75 C 12.160156 -12.101562 12.265625 -12.644531 12.265625 -13.375 Z M 12.265625 -13.375 "/></g></g></g><g fill="#bc9c22" fill-opacity="1"><g transform="translate(123.399743, 151.428194)"><g/></g></g><g fill="#bc9c22" fill-opacity="1"><g transform="translate(130.244872, 151.428194)"><g><path d="M 12.515625 0 L 7.1875 -8.046875 L 6.015625 -6.6875 L 6.015625 0 L 2.09375 0 L 2.09375 -19.265625 L 6.015625 -19.265625 L 6.015625 -11.75 L 12.3125 -19.265625 L 16.890625 -19.265625 L 9.71875 -10.96875 L 17.40625 0 Z M 12.515625 0 "/></g></g></g><g fill="#bc9c22" fill-opacity="1"><g transform="translate(148.053337, 151.428194)"><g><path d="M 10.71875 0 L 1.421875 0 L 1.421875 -3.015625 L 4.109375 -3.015625 L 4.109375 -16.234375 L 1.421875 -16.234375 L 1.421875 -19.265625 L 10.71875 -19.265625 L 10.71875 -16.234375 L 8.046875 -16.234375 L 8.046875 -3.015625 L 10.71875 -3.015625 Z M 10.71875 0 "/></g></g></g><g fill="#bc9c22" fill-opacity="1"><g transform="translate(160.185354, 151.428194)"><g><path d="M 12.9375 0 L 5.921875 -13.765625 L 5.921875 0 L 2.09375 0 L 2.09375 -19.265625 L 7.1875 -19.265625 L 13.703125 -6.28125 L 13.703125 -19.265625 L 17.5625 -19.265625 L 17.5625 0 Z M 12.9375 0 "/></g></g></g><g fill="#bc9c22" fill-opacity="1"><g transform="translate(179.816404, 151.428194)"><g><path d="M 14.828125 -13.84375 C 14.328125 -14.644531 13.722656 -15.234375 13.015625 -15.609375 C 12.316406 -15.992188 11.4375 -16.1875 10.375 -16.1875 C 8.613281 -16.1875 7.34375 -15.617188 6.5625 -14.484375 C 5.78125 -13.359375 5.390625 -11.6875 5.390625 -9.46875 C 5.390625 -7.257812 5.773438 -5.640625 6.546875 -4.609375 C 7.316406 -3.585938 8.5625 -3.078125 10.28125 -3.078125 C 11.582031 -3.078125 12.78125 -3.34375 13.875 -3.875 L 13.875 -6.875 L 10.109375 -6.875 L 10.109375 -10.34375 L 17.8125 -10.34375 L 17.8125 -1.828125 C 16.925781 -1.160156 15.820312 -0.617188 14.5 -0.203125 C 13.175781 0.203125 11.8125 0.40625 10.40625 0.40625 C 7.40625 0.40625 5.144531 -0.375 3.625 -1.9375 C 2.101562 -3.507812 1.34375 -6.019531 1.34375 -9.46875 C 1.34375 -16.257812 4.332031 -19.65625 10.3125 -19.65625 C 12.050781 -19.65625 13.570312 -19.363281 14.875 -18.78125 C 16.175781 -18.195312 17.164062 -17.34375 17.84375 -16.21875 Z M 14.828125 -13.84375 "/></g></g></g><g fill="#bc9c22" fill-opacity="1"><g transform="translate(45.394331, 176.004836)"><g><path d="M 12.921875 0 L 8 -7.296875 L 6.015625 -7.296875 L 6.015625 0 L 2.09375 0 L 2.09375 -19.265625 L 9.09375 -19.265625 C 11.5625 -19.265625 13.367188 -18.816406 14.515625 -17.921875 C 15.660156 -17.035156 16.234375 -15.578125 16.234375 -13.546875 C 16.234375 -11.898438 15.890625 -10.585938 15.203125 -9.609375 C 14.515625 -8.640625 13.535156 -8.019531 12.265625 -7.75 L 17.40625 0 Z M 12.265625 -13.375 C 12.265625 -14.351562 12.015625 -15.007812 11.515625 -15.34375 C 11.015625 -15.675781 10.195312 -15.84375 9.0625 -15.84375 L 6.015625 -15.84375 L 6.015625 -10.71875 L 8.890625 -10.71875 C 9.773438 -10.71875 10.453125 -10.800781 10.921875 -10.96875 C 11.398438 -11.132812 11.742188 -11.394531 11.953125 -11.75 C 12.160156 -12.101562 12.265625 -12.644531 12.265625 -13.375 Z M 12.265625 -13.375 "/></g></g></g><g fill="#bc9c22" fill-opacity="1"><g transform="translate(63.258447, 176.004836)"><g><path d="M 17.78125 -9.625 C 17.78125 -6.28125 17.070312 -3.769531 15.65625 -2.09375 C 14.25 -0.425781 12.191406 0.40625 9.484375 0.40625 C 6.640625 0.40625 4.546875 -0.472656 3.203125 -2.234375 C 1.867188 -3.992188 1.203125 -6.457031 1.203125 -9.625 C 1.203125 -12.820312 1.867188 -15.289062 3.203125 -17.03125 C 4.546875 -18.78125 6.640625 -19.65625 9.484375 -19.65625 C 12.359375 -19.65625 14.457031 -18.78125 15.78125 -17.03125 C 17.113281 -15.289062 17.78125 -12.820312 17.78125 -9.625 Z M 13.734375 -9.625 C 13.734375 -11.90625 13.410156 -13.566406 12.765625 -14.609375 C 12.117188 -15.660156 11.023438 -16.1875 9.484375 -16.1875 C 7.953125 -16.1875 6.863281 -15.660156 6.21875 -14.609375 C 5.570312 -13.566406 5.25 -11.90625 5.25 -9.625 C 5.25 -7.34375 5.570312 -5.679688 6.21875 -4.640625 C 6.875 -3.597656 7.960938 -3.078125 9.484375 -3.078125 C 11.023438 -3.078125 12.117188 -3.597656 12.765625 -4.640625 C 13.410156 -5.679688 13.734375 -7.34375 13.734375 -9.625 Z M 13.734375 -9.625 "/></g></g></g><g fill="#bc9c22" fill-opacity="1"><g transform="translate(82.235593, 176.004836)"><g><path d="M 17.78125 -9.625 C 17.78125 -6.28125 17.070312 -3.769531 15.65625 -2.09375 C 14.25 -0.425781 12.191406 0.40625 9.484375 0.40625 C 6.640625 0.40625 4.546875 -0.472656 3.203125 -2.234375 C 1.867188 -3.992188 1.203125 -6.457031 1.203125 -9.625 C 1.203125 -12.820312 1.867188 -15.289062 3.203125 -17.03125 C 4.546875 -18.78125 6.640625 -19.65625 9.484375 -19.65625 C 12.359375 -19.65625 14.457031 -18.78125 15.78125 -17.03125 C 17.113281 -15.289062 17.78125 -12.820312 17.78125 -9.625 Z M 13.734375 -9.625 C 13.734375 -11.90625 13.410156 -13.566406 12.765625 -14.609375 C 12.117188 -15.660156 11.023438 -16.1875 9.484375 -16.1875 C 7.953125 -16.1875 6.863281 -15.660156 6.21875 -14.609375 C 5.570312 -13.566406 5.25 -11.90625 5.25 -9.625 C 5.25 -7.34375 5.570312 -5.679688 6.21875 -4.640625 C 6.875 -3.597656 7.960938 -3.078125 9.484375 -3.078125 C 11.023438 -3.078125 12.117188 -3.597656 12.765625 -4.640625 C 13.410156 -5.679688 13.734375 -7.34375 13.734375 -9.625 Z M 13.734375 -9.625 "/></g></g></g><g fill="#bc9c22" fill-opacity="1"><g transform="translate(101.212739, 176.004836)"><g><path d="M 6.015625 -15.671875 L 6.015625 -11.515625 L 13.109375 -11.515625 L 13.109375 -8.046875 L 6.015625 -8.046875 L 6.015625 0 L 2.09375 0 L 2.09375 -19.265625 L 14.46875 -19.265625 L 14.46875 -15.671875 Z M 6.015625 -15.671875 "/></g></g></g><g fill="#bc9c22" fill-opacity="1"><g transform="translate(116.57254, 176.004836)"><g><path d="M 10.71875 0 L 1.421875 0 L 1.421875 -3.015625 L 4.109375 -3.015625 L 4.109375 -16.234375 L 1.421875 -16.234375 L 1.421875 -19.265625 L 10.71875 -19.265625 L 10.71875 -16.234375 L 8.046875 -16.234375 L 8.046875 -3.015625 L 10.71875 -3.015625 Z M 10.71875 0 "/></g></g></g><g fill="#bc9c22" fill-opacity="1"><g transform="translate(128.704557, 176.004836)"><g><path d="M 12.9375 0 L 5.921875 -13.765625 L 5.921875 0 L 2.09375 0 L 2.09375 -19.265625 L 7.1875 -19.265625 L 13.703125 -6.28125 L 13.703125 -19.265625 L 17.5625 -19.265625 L 17.5625 0 Z M 12.9375 0 "/></g></g></g><g fill="#bc9c22" fill-opacity="1"><g transform="translate(148.335607, 176.004836)"><g><path d="M 14.828125 -13.84375 C 14.328125 -14.644531 13.722656 -15.234375 13.015625 -15.609375 C 12.316406 -15.992188 11.4375 -16.1875 10.375 -16.1875 C 8.613281 -16.1875 7.34375 -15.617188 6.5625 -14.484375 C 5.78125 -13.359375 5.390625 -11.6875 5.390625 -9.46875 C 5.390625 -7.257812 5.773438 -5.640625 6.546875 -4.609375 C 7.316406 -3.585938 8.5625 -3.078125 10.28125 -3.078125 C 11.582031 -3.078125 12.78125 -3.34375 13.875 -3.875 L 13.875 -6.875 L 10.109375 -6.875 L 10.109375 -10.34375 L 17.8125 -10.34375 L 17.8125 -1.828125 C 16.925781 -1.160156 15.820312 -0.617188 14.5 -0.203125 C 13.175781 0.203125 11.8125 0.40625 10.40625 0.40625 C 7.40625 0.40625 5.144531 -0.375 3.625 -1.9375 C 2.101562 -3.507812 1.34375 -6.019531 1.34375 -9.46875 C 1.34375 -16.257812 4.332031 -19.65625 10.3125 -19.65625 C 12.050781 -19.65625 13.570312 -19.363281 14.875 -18.78125 C 16.175781 -18.195312 17.164062 -17.34375 17.84375 -16.21875 Z M 14.828125 -13.84375 "/></g></g></g></svg>